<svg xmlns="http://www.w3.org/2000/svg" viewBox="0 0 708.28 196.99"><defs><style>.cls-1{fill:#333;}</style></defs><g id="Layer_2" data-name="Layer 2"><g id="Layer_1-2" data-name="Layer 1"><path class="cls-1" d="M708.28,71.19a7.2,7.2,0,1,1-7.18-7A7,7,0,0,1,708.28,71.19Zm-12.6,0a5.43,5.43,0,0,0,5.47,5.6,5.36,5.36,0,0,0,5.33-5.55,5.4,5.4,0,1,0-10.8,0ZM700,74.86h-1.62v-7a14.09,14.09,0,0,1,2.69-.21,4.39,4.39,0,0,1,2.44.51,2,2,0,0,1,.68,1.54,1.8,1.8,0,0,1-1.45,1.62v.09a2.06,2.06,0,0,1,1.28,1.7,5.22,5.22,0,0,0,.51,1.75h-1.75a6.15,6.15,0,0,1-.56-1.7c-.12-.77-.55-1.11-1.45-1.11H700Zm0-4h.77c.89,0,1.62-.3,1.62-1s-.47-1.07-1.5-1.07a3.43,3.43,0,0,0-.89.09Z"/><path class="cls-1" d="M168.53,38.65c.86-7.43,1.4-12.82,1.73-15.95s.43-5.5.1-6.68a4,4,0,0,0-5.92-2.16l.1.32c0,.54.11,2.16.11,3.88s-.43,4.21-1,7.66-1.18,6.57-1.83,9.59-1.62,7.12-2.8,12.61S157,57.3,156.46,60c-1.62,7.22-1.4,11.64.86,13.15,3.67,2.26,9.06-.54,9.06-.54a73.41,73.41,0,0,1-.11-12Q167.23,49.81,168.53,38.65Z"/><path class="cls-1" d="M144.82,13c.64-.11,2.48-.22,5.49-.43s5.18-.33,6.58-.43,3.56-.22,6.58-.33,5.6-.21,7.76-.21a211.83,211.83,0,0,1,25.11,1.18,64.23,64.23,0,0,1,11.75,2.05l1.19-1.51c1.61-1.83,2.69-4.63,1.51-7.22-1.73-2.69-6-3.77-12.83-3.23-5.28.32-13.58,1.07-25,2s-20.16,1.62-26.3,2.16c-7.76.65-12.07-.11-12.83-2.26-.54-1.4.43-2.7,2.81-4L136.3.5a6.88,6.88,0,0,0-5.82.32A7.9,7.9,0,0,0,128.86,2c-2,1.94-2.58,4-1.5,6.26C129.19,12.14,135,13.75,144.82,13Z"/><path class="cls-1" d="M204.35,19.69c-2.38-2.75-8.06.09-8.06.09a45.53,45.53,0,0,1-.09,8.7q-4.26.27-5.22.27c0,.19-.46,2.11,1.28,2.11,1.56.09,2.84.27,3.76.37l-.92,9.52c-.25,2.65-.38,4.9-.39,6.81A3.69,3.69,0,0,1,192.08,49H192a16.08,16.08,0,0,0,.73-4.12c.37-6.23-.18-11.72-4-11.35a3.84,3.84,0,0,0-2.29,1.09c-3.93-1.37-12,2.48-12.73,11.91-.27,3.39.46,6,2.29,8.15a7.36,7.36,0,0,0,6.6,2.75c4.12-.28,7.05-2.48,8.79-6.41h.36a4.83,4.83,0,0,0,3-1.15c.28,4.82,1.66,6.88,4.37,7.56,3.94.82,8.06-2.11,9.43-5.31a4.72,4.72,0,0,0,.17-.48,8.81,8.81,0,0,0,.84,2.49c1.19,2,2.56,3.11,4.3,3.3q5.5.67,9.07-7.7c.27,4.12,1.83,6.41,4.67,7.05a7.11,7.11,0,0,0,5.68-1.09,10.51,10.51,0,0,0,3.49-3.43q.94,4.41,4.2,5.17A6.91,6.91,0,0,0,246.75,56a10.42,10.42,0,0,0,3.84-4.58,2.64,2.64,0,0,0,.1-2.47c-.37-.36-.55-.46-.65-.18-.73,2.47-2.65,5.49-4.76,5.13-2.47-.1-2.47-5.5.37-18.41,1.46-6.69,2.29-11.45,2.38-14.1s-.46-4.76-1.65-6c-1.46-1.55-4.85-1.19-6-.73-.64.28-1.1.46-1.47.64A63.27,63.27,0,0,1,239,25.55c-.27,3.11-.82,8-1.83,14.47a44.19,44.19,0,0,0-.7,9.49c-.81,2.09-2.62,4.21-4.52,3.88s-3-2.57-2.56-7.33c.46-1.19-6.32-4.12-6.14-3a1.8,1.8,0,0,0-.09.73c-1.19,5.77-3.29,9.62-5.49,9.62-1.74,0-2.93-3.39-1.92-8.52,1.19-6.32,4.12-10.44,7.41-10.16,2.29.09,2.84,2.74,1.28,4.57a4.7,4.7,0,0,1-2.28,1.47c-.1.27.55.73,2.1,1.28,3.39,1.19,5.68.55,6.69-1.83.64-1.46.27-2.93-1-4.49a7.43,7.43,0,0,0-5.68-2.56,13.58,13.58,0,0,0-9.71,3.57,17,17,0,0,0-5.67,9.8,14,14,0,0,0-.3,2.94.5.5,0,0,0-.53,0c-.73,2.66-2.84,5-4.76,4.67-2.2-.37-2.2-6.32.09-17.95l.83-4.21a13.17,13.17,0,0,0,2.1.09c3.94.09,5.22-.37,5.86-2.11a3,3,0,0,0,0-2.56c-1,0-4.21.37-7.32.55C205.45,23.63,205.27,20.88,204.35,19.69ZM184.94,53.57c-3.12-.09-4.58-2.84-4.4-8.15.09-4.49,1.19-7.51,3.21-9.07a2.19,2.19,0,0,1,1.74-.45c-1.38,2.74-1.38,6,0,9.7a7.6,7.6,0,0,0,3.75,4.86C188.05,52.56,186.59,53.66,184.94,53.57Zm5.77-8.15a15.33,15.33,0,0,1-.64,3.3,4.89,4.89,0,0,1-2.39-3.94c-.45-2.93.19-5.5,1.56-5.5C190.43,39.19,191.07,41.76,190.71,45.42Z"/><path class="cls-1" d="M62.73,137.38c-.45,4.7-.9,9.18-1.34,13-.67,8.06-.45,10.52.44,14.1,1.57,6,7.61,7.61,13,4.93v-.9a49.89,49.89,0,0,1-.67-8.28,138.33,138.33,0,0,1,3.36-27.53c.89-4.25,2.24-11.41,4.25-21.26s4-19.24,5.82-28.42c2.91-15,2.69-22.83-2.46-27.3C78.39,49.88,66.53,57,66.53,57a148.62,148.62,0,0,1,.23,24.62C65.19,105.61,63.63,127.76,62.73,137.38Z"/><path class="cls-1" d="M121.14,104.26C138.82,96.43,148,85,148.89,69.8,150,45.4,128.3,35.33,88,37.13a164.66,164.66,0,0,0-25.29,3.13C42.81,44.51,29.83,51.67,24,62c-3.35,5.82-3.35,10.52-.22,13.88,2.91,3.13,6,4,9,2.69,1.79-.9,2.24-1.8,1.57-2.47l-.67-.89c-2-3.36,0-7.39,5.59-12.53,10.07-9.18,25.51-14.55,46.1-15.89,28.42-1.79,42.3,8,41.63,25.73-.23,9.18-4,16.79-11.64,22.83a44.52,44.52,0,0,1-25.51,10.3q-5.72.33-2.69,6.71c2.46-.23,6-.45,10.3-1.12,22.6-1.79,45,6.49,43,29.09-1.34,11.64-9.84,20.81-25.28,27.31-15.45,6.71-34,8.72-55.5,6.26-14.33-1.79-26.41-5.37-36-11S9.24,151,9,144.1c-.22-7.39,3.58-12.76,11.41-16.34,8.06-3.58,17.46-4.7,28-3.13l.67-1.79A4.71,4.71,0,0,0,46,116.35c-15.89-4.7-50.58,3.35-45.43,31.1,1.79,9.63,8.05,17.24,18.57,22.83a96.93,96.93,0,0,0,37.37,10.29c30,2.91,55.06-.44,75.2-9.62s30.43-21.48,30.66-37.37C162.76,114.11,149.11,104.26,121.14,104.26Z"/><path class="cls-1" d="M345.83,128.65a19.83,19.83,0,0,1-4.25,7.61,40.84,40.84,0,0,1-9.85,8.73c.9-5.59,1.8-13,2.91-22.38a123.25,123.25,0,0,1,4.48-22.38l.67-2.24c-7.38-8-18.13-4.47-20.81,9.18L315.85,124c-2,8.73-7.61,15.67-11.87,15.67-4.47,0-6.93-6.94-2.68-21.71,3.36-12.08,3.36-19.92,0-23.27q-5.37-5-16.79.67c.23,6-.44,15.44-2.46,28.64a40.81,40.81,0,0,0,0,11.46c-2.1,2.62-4.72,4.27-7.64,3.76-6.94-1.12-6.71-15.44.67-43.41,4-15.67,6.05-26.86,5.82-33.8,0-6.93-1.79-12.08-5.15-15.44-3.8-3.58-11.63-2.68-14.32-1.56a14,14,0,0,0-3.13,1.34c1.34,12.76.45,29.32-2.69,49.46-8.5-.23-16.56,2.23-24.39,7.61A30,30,0,0,0,218.49,124c-1.65,2.22-4.24,4.64-7.38,4.64h-.22a40.32,40.32,0,0,0,1.79-10.07c.89-15.21-.45-28.64-9.85-27.75a9.46,9.46,0,0,0-5.6,2.69c-9.62-3.36-29.31,6-31.1,29.09-.67,8.28,1.12,14.77,5.59,19.92s9.85,7.38,16.12,6.71c10.07-.67,17.23-6,21.48-15.66h.89a11.81,11.81,0,0,0,7.73-3c0,11.33,5.19,17.91,12.41,18.69,8.73.9,17.46-5.14,22.61-15.89,1.12,8.06,4.92,12.76,11,14.33,7.37,1.5,14.73-2,19.48-7.23,2.16,5.57,6.19,8.73,11.19,9.24q11.07,1,19.46-11.41c-.22,2.91-.89,10.74-1.11,13.2,0,.23-.23,1.12-.23,1.35l-.67.44c-26.41,10.74-28.87,30.21-23.27,39.16,4.25,6.27,19.47,8.29,30.43-8.72,5.15-8.51,8.95-19.7,11.42-33.35a34.72,34.72,0,0,0,16.56-15.44c1.34-2.68,1.34-4.7.22-6C346.51,128.21,346.06,128,345.83,128.65ZM193.65,139.84c-7.61-.22-11.19-6.93-10.74-19.91.23-11,2.91-18.35,7.83-22.16A5.41,5.41,0,0,1,195,96.65c-3.36,6.72-3.36,14.55,0,23.73a18.56,18.56,0,0,0,9.17,11.86C201.26,137.38,197.68,140.07,193.65,139.84Zm14.1-19.91a36.48,36.48,0,0,1-1.56,8c-3.14-1.56-5.15-4.92-5.82-9.62-1.12-7.16.45-13.43,3.8-13.43C207.08,104.71,208.65,111,207.75,119.93Zm46.33-13.21c-.68,5.15-1.35,10.07-1.57,15-2,9.85-7.83,17.68-12.53,17.68-4.25,0-6.94-6.94-5.15-18.58,2.46-12.75,10.52-19.91,20.14-19.91C254.75,102.47,254.3,104.26,254.08,106.72Zm51.25,76.54c-3.81,6-11.64,7.16-13.21,2-2.46-8.28,4.93-21.26,20.14-27.75C310.47,169.39,308.24,178.11,305.33,183.26Z"/><path class="cls-1" d="M425.44,137.15c-.45,4.7-.89,9.17-1.34,13-.67,8.05-.45,10.52.45,14.1,1.56,6,7.61,7.6,13,4.92v-.9a48.67,48.67,0,0,1-.67-8.28,138.22,138.22,0,0,1,3.35-27.52c.9-4.25,2.24-11.42,4.25-21.26s4-19.25,5.82-28.42c2.91-15,2.69-22.83-2.46-27.31-6.71-5.81-18.57,1.35-18.57,1.35a149.66,149.66,0,0,1,.22,24.61C427.9,105.37,426.34,127.53,425.44,137.15Z"/><path class="cls-1" d="M483.85,104c17.68-7.84,26.86-19.25,27.75-34.47C512.72,45.17,491,35.1,450.73,36.89A167.17,167.17,0,0,0,425.44,40c-19.92,4.25-32.9,11.42-38.71,21.71-3.36,5.82-3.36,10.52-.23,13.88,2.91,3.13,6,4,8.95,2.68,1.79-.89,2.24-1.79,1.57-2.46l-.67-.9c-2-3.35,0-7.38,5.59-12.53,10.07-9.18,25.52-14.55,46.11-15.89,28.41-1.79,42.29,8.06,41.62,25.74-.22,9.17-4,16.78-11.64,22.82a44.39,44.39,0,0,1-25.51,10.3q-5.7.33-2.69,6.71c2.47-.22,6-.44,10.3-1.12,22.6-1.79,45,6.49,43,29.1-1.34,11.63-9.84,20.81-25.28,27.3-15.44,6.71-34,8.73-55.5,6.26-14.32-1.79-26.41-5.37-36-11S372,150.8,371.73,143.86c-.22-7.38,3.58-12.76,11.42-16.33,8.05-3.59,17.45-4.7,28-3.14l.67-1.79a4.71,4.71,0,0,0-3.13-6.49c-15.89-4.7-50.58,3.36-45.43,31.11,1.79,9.62,8,17.23,18.57,22.83a97.15,97.15,0,0,0,37.38,10.29c30,2.91,55.05-.45,75.19-9.62S524.8,149.23,525,133.34C525.48,113.87,511.82,104,483.85,104Z"/><path class="cls-1" d="M707.42,128.2c-.89-.67-1.34-.9-1.34-.23-2,6.49-11.63,11.42-21.26,11.19-6.94-.22-14.77-4.92-17.23-13,11.64.22,22.16-5.37,26-12.53,4.7-8.28,3.36-18.58-4-22.83-5.15-3.8-14.32-1.79-22.6,2.46-8.06,4.26-15.44,15.45-16.56,29.1,0,.13,0,.25,0,.39a18.28,18.28,0,0,1-5.13,2.07c.45-1.34.89-3.58,1.57-6.49,2.46-15-4-24.62-12.31-25.29-12.31-1.12-18.13,9.4-15.22,21,1.57,6.49,4.92,11.19,9.62,13.87-3.58,12.76-11.64,19-16.34,17.46-2.9-.9-3.58-7.61-1.78-20.14q1.34-8.73,4.69-27.53C617.68,85,619,76.5,619.7,72.25c2.46-15.44,2-23-2.69-27.53-6.26-6.26-17.45,1.34-17.45,1.34a152,152,0,0,1,.22,24.62,295.94,295.94,0,0,1-3.36,29.76c-1.56,11.42-2.68,19-2.91,23.06a38.05,38.05,0,0,0,.86,12.29c-2.11,2.33-4.69,3.83-7.35,3.37-4.47-.67-7.38-6.26-6.26-17.9,1.12-2.91-15.45-10.07-15-7.39a4.44,4.44,0,0,0-.22,1.79c-2.91,14.1-8.06,23.5-13.43,23.5-4.25,0-7.16-8.28-4.7-20.81,2.91-15.44,10.07-25.51,18.13-24.84,5.59.22,6.94,6.71,3.13,11.19a11.5,11.5,0,0,1-5.59,3.58c-.23.67,1.34,1.79,5.14,3.13,8.28,2.91,13.88,1.34,16.34-4.47,1.57-3.59.67-7.17-2.46-11s-7.83-6-13.88-6.27c-8.5-.44-16.33,2.47-23.72,8.73a41.52,41.52,0,0,0-13.87,23.95c-1.57,7.38-.9,13.65,1.79,18.57,2.91,4.92,6.26,7.61,10.52,8.06q13.42,1.68,22.15-18.8c.67,10.07,4.48,15.66,11.41,17.23a17.43,17.43,0,0,0,13.88-2.68,28.13,28.13,0,0,0,5.63-4.54A15.45,15.45,0,0,0,607.83,149a33.77,33.77,0,0,0,35.59-19.7,24.76,24.76,0,0,0,7-2,20.44,20.44,0,0,0,6.7,13.6c5.37,4.7,11,7.39,17,8.06a38.88,38.88,0,0,0,20.81-3.58c6.49-3.14,10.52-6.72,12.53-11C708.54,131.55,708.54,129.54,707.42,128.2ZM630,122.6v.23c-2.91-2-4.92-5.6-5.59-11-1.12-6.94.89-12.76,3.8-13C631.33,98.43,632.68,106.26,630,122.6Zm36.93-4.25c.67-9.18,3.35-16.56,7.61-22.16,3.8-5.59,8.73-3.8,8.73,4.25,0,9.18-6.72,19.47-16.34,21.94A11.78,11.78,0,0,1,666.92,118.35Z"/></g></g></svg>